<svg xmlns="http://www.w3.org/2000/svg" width="73" height="20" fill="#bbb" fill-rule="evenodd" xmlns:v="https://vecta.io/nano"><path d="M24.067 4.343c0 1.744.029 2.574.829 3.376a2.89 2.89 0 0 0 .979.645c.367.146.758.214 1.152.201a2.68 2.68 0 0 0 1.179-.182 2.7 2.7 0 0 0 .987-.676 2.17 2.17 0 0 0 .633-1.335.62.62 0 0 0-.079-.335.61.61 0 0 0-.244-.24c-.102-.055-.218-.08-.334-.071a.61.61 0 0 0-.319.12 1.13 1.13 0 0 0-.308.473 1.64 1.64 0 0 1-.454.703 1.62 1.62 0 0 1-.739.384 1.61 1.61 0 0 1-.831-.035 1.62 1.62 0 0 1-.705-.445c-.435-.472-.493-1.003-.493-2.583s.058-2.111.493-2.583a1.62 1.62 0 0 1 .705-.445 1.61 1.61 0 0 1 .831-.035 1.62 1.62 0 0 1 .739.384 1.64 1.64 0 0 1 .454.703 1.13 1.13 0 0 0 .308.472.59.59 0 0 0 .372.122.58.58 0 0 0 .243-.045.59.59 0 0 0 .203-.141c.057-.061.101-.134.128-.213a.59.59 0 0 0 .029-.247A2.17 2.17 0 0 0 29.193.98a2.7 2.7 0 0 0-.986-.676 2.68 2.68 0 0 0-1.178-.182 2.87 2.87 0 0 0-1.152.201 2.89 2.89 0 0 0-.979.645c-.801.804-.83 1.633-.83 3.375zm7.192 3.913a.65.65 0 0 0 .232.21.64.64 0 0 0 .604 0 .65.65 0 0 0 .232-.21c.086-.177.118-.376.093-.572V4.996h1.568l1.723 3.032a.74.74 0 0 0 .234.351c.111.092.245.148.387.163.118.002.235-.028.337-.088a.57.57 0 0 0 .227-.215.58.58 0 0 0 .08-.304 1.06 1.06 0 0 0-.197-.519l-1.48-2.597a2.17 2.17 0 0 0 1.206-.809 2.2 2.2 0 0 0 .432-1.394 2.4 2.4 0 0 0-.184-.976 2.38 2.38 0 0 0-.562-.815c-.242-.229-.53-.404-.843-.513a2.34 2.34 0 0 0-.977-.121h-2.438a.75.75 0 0 0-.586.18c-.069.08-.121.174-.152.275a.76.76 0 0 0-.028.314v6.724a1.02 1.02 0 0 0 .093.571zm3.018-6.942a1.26 1.26 0 0 1 .536.059 1.27 1.27 0 0 1 .464.278 1.28 1.28 0 0 1 .308.447 1.29 1.29 0 0 1 .096.535 1.28 1.28 0 0 1-.099.53 1.27 1.27 0 0 1-.309.441 1.25 1.25 0 0 1-.463.271c-.172.056-.353.074-.533.052H32.42V1.314h1.858zm5.299 0h3.317a.96.96 0 0 0 .51-.082.53.53 0 0 0 .192-.204c.045-.084.067-.179.063-.274.004-.095-.018-.19-.063-.274a.53.53 0 0 0-.192-.204c-.16-.073-.336-.102-.51-.082h-3.805a.75.75 0 0 0-.586.18c-.069.08-.121.174-.152.275a.76.76 0 0 0-.028.314v6.764a.76.76 0 0 0 .028.314c.031.101.083.195.152.275a.75.75 0 0 0 .586.181h3.808a.97.97 0 0 0 .51-.082.57.57 0 0 0 .187-.207c.044-.083.068-.177.068-.272s-.023-.188-.068-.272a.57.57 0 0 0-.187-.207c-.16-.073-.336-.101-.51-.082H39.58v-2.51h2.728a.96.96 0 0 0 .51-.082.53.53 0 0 0 .192-.204.54.54 0 0 0 .063-.274c.004-.095-.018-.19-.063-.274a.53.53 0 0 0-.192-.204c-.16-.074-.336-.102-.51-.082h-2.732V1.314zm9.641 4.441H46.57l1.324-3.633 1.323 3.633zm.389 1.073l.412 1.115a.96.96 0 0 0 .273.478.53.53 0 0 0 .343.123.64.64 0 0 0 .248-.047c.079-.032.15-.079.211-.139a.71.71 0 0 0 .158-.411c.008-.15-.034-.3-.117-.425L48.602.751c-.045-.163-.131-.312-.249-.432a.69.69 0 0 0-.917 0 .98.98 0 0 0-.249.432l-2.529 6.77a.71.71 0 0 0-.117.425.7.7 0 0 0 .158.411c.122.121.287.188.459.187.125.001.246-.043.343-.123a.96.96 0 0 0 .272-.478l.412-1.114h3.425l-.001-.003zm7.07-6.076c.004-.095-.018-.19-.063-.274a.53.53 0 0 0-.192-.204c-.16-.073-.336-.102-.51-.082h-4.364a.95.95 0 0 0-.51.082.53.53 0 0 0-.192.204c-.045.084-.067.179-.063.274-.004.095.018.19.063.274a.53.53 0 0 0 .192.204.96.96 0 0 0 .51.084h1.556v6.371c-.025.196.007.395.093.572a.65.65 0 0 0 .232.21.64.64 0 0 0 .604 0 .65.65 0 0 0 .232-.21c.085-.178.116-.377.09-.572V1.314h1.557a.96.96 0 0 0 .51-.082.53.53 0 0 0 .194-.205.54.54 0 0 0 .062-.276zm2.378 6.934V1.002a1.01 1.01 0 0 0-.093-.571.65.65 0 0 0-.232-.21.64.64 0 0 0-.604 0 .65.65 0 0 0-.232.21c-.086.177-.118.376-.093.571v6.683c-.025.196.007.395.093.572a.65.65 0 0 0 .232.21.64.64 0 0 0 .604 0 .65.65 0 0 0 .232-.21c.086-.177.118-.376.093-.572zm7.018-6.548a1.04 1.04 0 0 0 .084-.531.6.6 0 0 0-.22-.34.59.59 0 0 0-.384-.12.49.49 0 0 0-.354.134.99.99 0 0 0-.255.478l-1.795 5.54-1.793-5.54c-.039-.18-.128-.346-.255-.478a.49.49 0 0 0-.164-.103.48.48 0 0 0-.191-.031.59.59 0 0 0-.384.121.6.6 0 0 0-.219.34c-.02.181.008.364.081.53l2.24 6.764a1.08 1.08 0 0 0 .255.478.65.65 0 0 0 .859 0 1.08 1.08 0 0 0 .255-.478l2.241-6.764zm2.432.177h3.317a.96.96 0 0 0 .51-.082.53.53 0 0 0 .192-.204c.045-.084.067-.179.063-.274.004-.095-.018-.19-.063-.274a.53.53 0 0 0-.192-.204c-.16-.073-.336-.101-.51-.082h-3.808a.75.75 0 0 0-.586.18c-.069.08-.121.174-.152.275a.76.76 0 0 0-.028.314v6.764a.66.66 0 0 0 .18.591c.076.076.169.133.271.164a.65.65 0 0 0 .315.017h3.808a.97.97 0 0 0 .51-.082.57.57 0 0 0 .255-.479c0-.095-.023-.188-.068-.272a.57.57 0 0 0-.187-.207.97.97 0 0 0-.51-.082h-3.317V4.87h2.729a.97.97 0 0 0 .51-.082.57.57 0 0 0 .255-.477.57.57 0 0 0-.255-.477.96.96 0 0 0-.51-.082h-2.729V1.314h.001zm-44.031 18.34a.66.66 0 0 0 .236.214.65.65 0 0 0 .308.077c.107 0 .213-.027.308-.077a.66.66 0 0 0 .236-.214c.087-.181.12-.383.094-.582v-2.516h1.914a2.52 2.52 0 0 0 1.022-.146 2.54 2.54 0 0 0 .88-.544 2.58 2.58 0 0 0 .594-.851c.138-.321.209-.669.209-1.019a2.59 2.59 0 0 0-.209-1.019 2.56 2.56 0 0 0-.594-.852 2.54 2.54 0 0 0-.88-.544 2.52 2.52 0 0 0-1.022-.146h-2.411a.76.76 0 0 0-.318.028c-.103.032-.198.085-.279.157a.77.77 0 0 0-.184.6v6.85a1.04 1.04 0 0 0 .095.582v.003zm1.183-7.079h1.845a1.33 1.33 0 0 1 .577.062 1.34 1.34 0 0 1 .497.302c.142.136.253.301.325.485s.103.381.092.578a1.38 1.38 0 0 1-.095.575c-.072.183-.184.347-.326.481a1.34 1.34 0 0 1-.496.299 1.33 1.33 0 0 1-.574.061h-1.845v-2.842zm9.338 4.527h-2.697l1.349-3.702 1.349 3.702zm.396 1.094l.42 1.137a.98.98 0 0 0 .278.486.55.55 0 0 0 .349.125c.087 0 .173-.016.253-.05s.153-.082.215-.144c.096-.118.152-.265.16-.418a.72.72 0 0 0-.118-.432l-2.579-6.897a1 1 0 0 0-.255-.44.7.7 0 0 0-.934 0 1 1 0 0 0-.255.44l-2.577 6.898a.72.72 0 0 0 .042.85c.061.062.134.11.214.143s.166.05.253.05c.127.001.251-.044.349-.125a.98.98 0 0 0 .278-.488l.417-1.137h3.49l.003.001zm2.902 1.456a.66.66 0 0 0 .236.214.65.65 0 0 0 .616 0 .66.66 0 0 0 .236-.214c.087-.181.12-.383.094-.582v-2.74h1.595l1.757 3.089a.75.75 0 0 0 .239.357.74.74 0 0 0 .394.166.66.66 0 0 0 .343-.089.58.58 0 0 0 .232-.219.59.59 0 0 0 .082-.31 1.08 1.08 0 0 0-.201-.528l-1.508-2.644a2.21 2.21 0 0 0 1.228-.825 2.24 2.24 0 0 0 .44-1.421c.008-.341-.056-.68-.187-.995a2.42 2.42 0 0 0-.573-.831 2.4 2.4 0 0 0-.859-.523 2.39 2.39 0 0 0-.996-.123h-2.481a.66.66 0 0 0-.597.184.67.67 0 0 0-.166.277c-.032.105-.038.216-.018.324v6.851c-.026.199.007.402.094.582v.001zm3.076-7.079a1.28 1.28 0 0 1 .546.059c.176.059.337.155.473.283s.243.283.314.455.105.359.098.545a1.3 1.3 0 0 1-.101.541 1.29 1.29 0 0 1-.315.449c-.136.125-.297.219-.472.276a1.27 1.27 0 0 1-.543.053h-1.893v-2.659h1.893v-.002zm9.491-.571c.004-.097-.018-.194-.064-.28a.54.54 0 0 0-.196-.208.98.98 0 0 0-.52-.083H45.63a.98.98 0 0 0-.521.083.58.58 0 0 0-.26.488.59.59 0 0 0 .069.277.58.58 0 0 0 .191.21.98.98 0 0 0 .521.084h1.585v6.496c-.026.199.007.402.094.582a.66.66 0 0 0 .236.214.65.65 0 0 0 .308.077c.107 0 .213-.027.308-.077a.66.66 0 0 0 .236-.214 1.04 1.04 0 0 0 .095-.582v-6.494h1.586a.98.98 0 0 0 .521-.084.54.54 0 0 0 .196-.208.55.55 0 0 0 .063-.279v-.003zm2.424 1.949l3.655 5.425a.93.93 0 0 0 .297.384.92.92 0 0 0 .449.18c.09.001.18-.016.263-.05a.66.66 0 0 0 .222-.152c.071-.084.123-.181.155-.286a.8.8 0 0 0 .028-.325v-6.866a1.04 1.04 0 0 0-.094-.579.66.66 0 0 0-.236-.214.65.65 0 0 0-.616 0 .66.66 0 0 0-.236.214c-.087.18-.12.381-.094.579v5.116l-3.656-5.424a.93.93 0 0 0-.297-.384.92.92 0 0 0-.448-.18.66.66 0 0 0-.485.202.81.81 0 0 0-.155.29.82.82 0 0 0-.028.328v6.862a1.04 1.04 0 0 0 .095.582.66.66 0 0 0 .236.214.65.65 0 0 0 .308.077c.107 0 .213-.027.308-.077a.66.66 0 0 0 .236-.214 1.04 1.04 0 0 0 .094-.582v-5.116l.001-.003zm8.077-1.375h3.381c.178.02.358-.009.521-.084a.58.58 0 0 0 .26-.487.59.59 0 0 0-.069-.277.58.58 0 0 0-.191-.21.98.98 0 0 0-.521-.083H60.86a.66.66 0 0 0-.597.184.68.68 0 0 0-.184.601v6.892a.79.79 0 0 0 .028.32.77.77 0 0 0 .156.28.77.77 0 0 0 .279.156.76.76 0 0 0 .318.028h3.88a.98.98 0 0 0 .521-.084.58.58 0 0 0 .191-.211.59.59 0 0 0 0-.554.58.58 0 0 0-.191-.21c-.163-.075-.343-.104-.521-.084h-3.38V16.2h2.78a.98.98 0 0 0 .52-.084.58.58 0 0 0 .191-.21.59.59 0 0 0 0-.554.58.58 0 0 0-.191-.21.98.98 0 0 0-.52-.084h-2.78v-2.482zm5.542 7.079a.66.66 0 0 0 .236.214.65.65 0 0 0 .308.077c.107 0 .213-.027.308-.077a.66.66 0 0 0 .236-.214 1.04 1.04 0 0 0 .095-.582v-2.742h1.595l1.756 3.089a.75.75 0 0 0 .239.357.74.74 0 0 0 .394.166.66.66 0 0 0 .343-.089.57.57 0 0 0 .232-.219c.055-.094.084-.201.082-.31a1.07 1.07 0 0 0-.201-.528l-1.508-2.644a2.21 2.21 0 0 0 1.228-.825 2.24 2.24 0 0 0 .44-1.421c.008-.341-.056-.68-.187-.995a2.43 2.43 0 0 0-.573-.831 2.4 2.4 0 0 0-.859-.523 2.39 2.39 0 0 0-.996-.123h-2.484a.76.76 0 0 0-.318.028c-.103.032-.198.085-.279.157a.77.77 0 0 0-.155.28c-.031.103-.041.212-.028.32v6.85c-.025.2.009.402.097.582v.003zm3.076-7.079c.184-.02.371 0 .547.059a1.29 1.29 0 0 1 .473.283c.136.127.243.282.314.455s.105.359.099.545a1.3 1.3 0 0 1-.101.541 1.29 1.29 0 0 1-.315.449c-.136.125-.297.219-.472.276a1.27 1.27 0 0 1-.543.053h-1.892v-2.661h1.892zm-55.822-1.151c-.043 0-.085 0-.128-.003l-.128.007c-.375 0-.734-.15-.999-.417a1.43 1.43 0 0 1 0-2.015c.265-.267.624-.417.999-.417l.128.006v-.013c.043 0 .085.007.128.007a2.81 2.81 0 0 0 1.568-.483c.464-.314.825-.759 1.038-1.28a2.87 2.87 0 0 0 .158-1.646 2.86 2.86 0 0 0-.775-1.458 2.82 2.82 0 0 0-1.447-.778 2.8 2.8 0 0 0-1.632.163 2.83 2.83 0 0 0-1.267 1.05 2.87 2.87 0 0 0-.476 1.583v8.417h-.005l.005.129a5.75 5.75 0 0 1-.948 3.177 5.67 5.67 0 0 1-2.539 2.109 5.62 5.62 0 0 1-3.273.33 5.64 5.64 0 0 1-2.902-1.561A5.73 5.73 0 0 1 .11 15.407a5.76 5.76 0 0 1 .32-3.302 5.7 5.7 0 0 1 2.085-2.566 5.63 5.63 0 0 1 3.147-.964h.128v.004l.128-.006a1.4 1.4 0 0 1 .541.108 1.41 1.41 0 0 1 .458.309 1.42 1.42 0 0 1 .306.462c.071.173.108.358.108.545s-.037.372-.108.545a1.42 1.42 0 0 1-.306.462 1.41 1.41 0 0 1-.458.309 1.4 1.4 0 0 1-.541.108c-.043 0-.086 0-.128-.006v.013c-.043 0-.085-.007-.128-.007a2.81 2.81 0 0 0-1.568.483 2.85 2.85 0 0 0-1.038 1.28 2.87 2.87 0 0 0-.158 1.646 2.86 2.86 0 0 0 .775 1.458 2.82 2.82 0 0 0 1.447.778 2.8 2.8 0 0 0 1.632-.163 2.83 2.83 0 0 0 1.267-1.05 2.87 2.87 0 0 0 .476-1.583V5.726a5.75 5.75 0 0 1 .948-3.177 5.68 5.68 0 0 1 2.539-2.11c1.035-.435 2.174-.549 3.273-.33a5.65 5.65 0 0 1 2.903 1.561 5.73 5.73 0 0 1 1.553 2.925 5.76 5.76 0 0 1-.32 3.303c-.428 1.045-1.154 1.938-2.086 2.566a5.63 5.63 0 0 1-3.148.963z"/></svg>