<svg xmlns="http://www.w3.org/2000/svg" width="27" height="19" fill="none" stroke="#bbb" stroke-width="2" stroke-linejoin="round" xmlns:v="https://vecta.io/nano"><path d="M24.686 3.661a3.06 3.06 0 0 0-.771-1.386c-.375-.386-.844-.667-1.362-.813C20.662 1 13.096 1 13.096 1s-7.565 0-9.457.506c-.518.146-.987.427-1.362.813s-.641.864-.771 1.386a31.89 31.89 0 0 0-.506 5.817 31.89 31.89 0 0 0 .506 5.861c.144.506.416.966.79 1.335a3.06 3.06 0 0 0 1.344.776C5.531 18 13.096 18 13.096 18s7.565 0 9.457-.506c.518-.146.988-.427 1.362-.813a3.06 3.06 0 0 0 .771-1.386 31.9 31.9 0 0 0 .506-5.773c.012-1.965-.157-3.927-.506-5.861z"/><path d="M10.622 13.118l6.323-3.596-6.323-3.596v7.191z"/></svg>